<?xml version="1.0" encoding="UTF-8" standalone="no"?>
<!-- Created with Inkscape (http://www.inkscape.org/) -->

<svg
   xmlns:dc="http://purl.org/dc/elements/1.1/"
   xmlns:cc="http://creativecommons.org/ns#"
   xmlns:rdf="http://www.w3.org/1999/02/22-rdf-syntax-ns#"
   xmlns:svg="http://www.w3.org/2000/svg"
   xmlns="http://www.w3.org/2000/svg"
   xmlns:sodipodi="http://sodipodi.sourceforge.net/DTD/sodipodi-0.dtd"
   xmlns:inkscape="http://www.inkscape.org/namespaces/inkscape"
   width="177.10532mm"
   height="30.179396mm"
   viewBox="0 0 177.10532 30.179396"
   version="1.1"
   id="svg5415"
   inkscape:version="0.92.4 (5da689c313, 2019-01-14)"
   sodipodi:docname="name_white.svg">
  <defs
     id="defs5409" />
  <sodipodi:namedview
     id="base"
     pagecolor="#ffffff"
     bordercolor="#666666"
     borderopacity="1.0"
     inkscape:pageopacity="0.0"
     inkscape:pageshadow="2"
     inkscape:zoom="2"
     inkscape:cx="277.21887"
     inkscape:cy="50.9247"
     inkscape:document-units="mm"
     inkscape:current-layer="text5962"
     showgrid="false"
     inkscape:object-paths="true"
     inkscape:window-width="3440"
     inkscape:window-height="1369"
     inkscape:window-x="1912"
     inkscape:window-y="-8"
     inkscape:window-maximized="1"
     inkscape:snap-object-midpoints="true"
     inkscape:snap-midpoints="true"
     inkscape:snap-intersection-paths="true"
     inkscape:snap-bbox="true"
     fit-margin-top="0"
     fit-margin-left="0"
     fit-margin-right="0"
     fit-margin-bottom="0" />
  <metadata
     id="metadata5412">
    <rdf:RDF>
      <cc:Work
         rdf:about="">
        <dc:format>image/svg+xml</dc:format>
        <dc:type
           rdf:resource="http://purl.org/dc/dcmitype/StillImage" />
        <dc:title></dc:title>
      </cc:Work>
    </rdf:RDF>
  </metadata>
  <g
     inkscape:label="Layer 1"
     inkscape:groupmode="layer"
     id="layer1"
     transform="translate(-13.406417,-81.040014)">
    <g
       aria-label="Alex J. DeGrave"
       style="font-style:normal;font-variant:normal;font-weight:normal;font-stretch:normal;font-size:3.52777767px;line-height:1.25;font-family:'Helvetica World';-inkscape-font-specification:'Helvetica World';letter-spacing:0px;word-spacing:0px;fill:#000000;fill-opacity:1;stroke:none;stroke-width:0.26458332"
       id="text5962">
      <path
         inkscape:connector-curvature="0"
         style="font-style:normal;font-variant:normal;font-weight:normal;font-stretch:normal;font-size:25.39999962px;line-height:1.25;font-family:'Helvetica World';-inkscape-font-specification:'Helvetica World';letter-spacing:0px;word-spacing:0px;fill:#ffffff;fill-opacity:1;stroke:#ffffff;stroke-width:0.26458332;stroke-opacity:1"
         d="m 184.79425,86.0877 c -2.00091,0 -3.5636,0.649057 -4.68808,1.947169 -1.12448,1.298114 -1.68672,3.112984 -1.68672,5.444624 0,2.03399 0.5457,3.65456 1.63711,4.86172 1.0914,1.1989 2.56728,1.806617 4.42763,1.823147 1.57923,-0.0165 2.85254,-0.405147 3.81992,-1.165817 1.09968,-0.90124 1.77354,-2.03812 2.02159,-3.41065 h -2.23243 c -0.0661,0.64492 -0.42581,1.24437 -1.079,1.79834 -0.65319,0.54571 -1.43454,0.81856 -2.34404,0.81856 -1.28985,0 -2.25723,-0.38034 -2.90215,-1.14102 -0.64492,-0.76068 -0.96738,-1.83554 -0.96738,-3.22461 v -1.78593 c 0.0413,-1.11622 0.39274,-2.05466 1.0542,-2.81534 0.66972,-0.76067 1.54615,-1.141013 2.62929,-1.141013 1.0666,0 1.92237,0.301793 2.56729,0.905373 0.64492,0.59531 1.02526,1.6123 1.14101,3.05098 h -5.68337 v 1.78593 h 8.00261 c 0,-2.48873 -0.50436,-4.40283 -1.51309,-5.742283 -1.00872,-1.339454 -2.41018,-2.00918 -4.20439,-2.00918 z"
         id="path5968-3-3" />
      <path
         inkscape:connector-curvature="0"
         style="font-style:normal;font-variant:normal;font-weight:normal;font-stretch:normal;font-size:25.39999962px;line-height:1.25;font-family:'Helvetica World';-inkscape-font-specification:'Helvetica World';letter-spacing:0px;word-spacing:0px;fill:#ffffff;fill-opacity:1;stroke:#ffffff;stroke-width:0.26458332;stroke-opacity:1"
         d="m 117.57355,86.087704 c -2.00091,0 -3.5636,0.649057 -4.68808,1.947169 -1.12448,1.298112 -1.68672,3.112987 -1.68672,5.444628 0,2.033984 0.5457,3.654557 1.63711,4.861719 1.0914,1.198895 2.56728,1.80662 4.42763,1.82315 1.57923,-0.0165 2.85254,-0.405155 3.81992,-1.165825 1.09968,-0.901237 1.77354,-2.03812 2.02159,-3.410646 h -2.23243 c -0.0661,0.644922 -0.42581,1.24437 -1.079,1.798341 -0.65319,0.545704 -1.43454,0.818555 -2.34404,0.818555 -1.28985,0 -2.25723,-0.380338 -2.90215,-1.141015 C 113.90246,96.303102 113.58,95.228233 113.58,93.83917 v -1.785937 c 0.0413,-1.116211 0.39274,-2.054657 1.0542,-2.815334 0.66972,-0.760674 1.54615,-1.141015 2.62929,-1.141015 1.0666,0 1.92237,0.301791 2.56729,0.905372 0.64492,0.595312 1.02526,1.612305 1.14101,3.050977 h -5.68337 v 1.785937 h 8.00261 c 0,-2.488737 -0.50436,-4.402833 -1.51309,-5.742286 -1.00872,-1.339454 -2.41018,-2.00918 -4.20439,-2.00918 z"
         id="path5968-3" />
      <path
         style="font-size:25.39999962px;stroke-width:0.99999994;stroke:#ffffff;stroke-opacity:1;fill:#ffffff;fill-opacity:1"
         d="m 76.591797,308.12109 -25.921875,68.90625 h 9.5625 l 7.21875,-20.0625 2.859375,-8.25 11.0625,-30.32812 h 0.1875 l 10.171875,30.32812 H 74.310547 l -2.859375,8.25 h 23.65625 l 6.796878,20.0625 h 10.17187 L 87.138672,308.12109 Z"
         transform="scale(0.26458333)"
         id="path5964"
         inkscape:connector-curvature="0" />
      <path
         d="M 33.96935,99.755089 H 31.736928 V 81.523644 h 2.232422 z"
         style="font-size:25.39999962px;stroke-width:0.26458332;stroke:#ffffff;stroke-opacity:1;fill:#ffffff;fill-opacity:1"
         id="path5966"
         inkscape:connector-curvature="0" />
      <path
         style="font-size:25.39999962px;stroke-width:0.99999994;stroke:#ffffff;stroke-opacity:1;fill:#ffffff;fill-opacity:1"
         d="m 162.74805,325.37109 c -7.5625,0 -13.46875,2.45313 -17.71875,7.35938 -4.25,4.90625 -6.375,11.76562 -6.375,20.57812 0,7.6875 2.0625,13.8125 6.1875,18.375 4.125,4.53127 9.70312,6.82814 16.73437,6.89063 5.96875,-0.0625 10.78125,-1.53126 14.4375,-4.40625 4.15625,-3.40625 6.70313,-7.70313 7.64063,-12.89063 h -8.4375 c -0.25,2.4375 -1.60938,4.70313 -4.07813,6.79688 -2.46875,2.0625 -5.42188,3.09375 -8.85937,3.09375 -4.875,0 -8.53125,-1.4375 -10.96875,-4.3125 -2.4375,-2.875 -3.65625,-6.9375 -3.65625,-12.1875 v -6.75 c 0.15625,-4.21875 1.48437,-7.76563 3.98437,-10.64063 2.53125,-2.87499 5.84375,-4.3125 9.9375,-4.3125 4.03125,0 7.26563,1.14063 9.70313,3.42188 2.43749,2.25 3.875,6.09375 4.3125,11.53125 h -21.48047 v 6.75 h 30.24609 c 0,-9.40625 -1.90625,-16.64063 -5.71875,-21.70313 -3.8125,-5.0625 -9.10937,-7.59375 -15.89062,-7.59375 z"
         transform="scale(0.26458333)"
         id="path5968"
         inkscape:connector-curvature="0" />
      <path
         style="font-size:25.39999962px;stroke-width:0.99999994;stroke:#ffffff;stroke-opacity:1;fill:#ffffff;fill-opacity:1"
         d="m 187.16992,326.82422 16.6875,24.375 5.20313,6.9375 12.375,18.89062 h 10.875 l -17.67188,-25.82812 -5.10937,-6.70313 -11.625,-17.67187 z m 34.07813,0 -9.32813,14.0664 5.17188,6.76563 14.42187,-20.83203 z m -19.82617,27.96484 -15.09571,22.23828 h 10.64063 l 9.73437,-15.20507 z"
         transform="scale(0.26458333)"
         id="path5970"
         inkscape:connector-curvature="0" />
      <path
         d="m 70.90353,93.88878 v 1.240235 q 0,1.475879 0.644922,2.244824 0.657324,0.756543 2.095996,0.756543 1.500683,0 2.207617,-0.781348 0.719336,-0.79375 0.719336,-2.368847 V 81.523644 h 2.468066 v 13.307714 q 0,2.616895 -1.389062,4.01836 -1.389063,1.389062 -3.869531,1.389062 -2.443262,0 -3.819922,-1.240234 -1.364258,-1.252637 -1.364258,-3.336231 V 93.88878 Z"
         style="font-size:25.39999962px;stroke-width:0.26458332;stroke:#ffffff;stroke-opacity:1;fill:#ffffff;fill-opacity:1"
         id="path5972"
         inkscape:connector-curvature="0" />
      <path
         style="font-size:25.39999962px;stroke-width:0.99999994;stroke:#ffffff;stroke-opacity:1;fill:#ffffff;fill-opacity:1"
         d="m 355.0293,308.12109 v 68.90625 h 9.32812 v -7.96875 -52.96875 h 17.25 c 6.71874,0.0625 11.85937,2.375 15.42188,6.9375 3.5625,4.5625 5.34375,10.95313 5.34375,19.17188 0,8.3125 -1.76562,14.875 -5.29688,19.6875 -3.53124,4.78125 -8.42187,7.17187 -14.67187,7.17187 h -11.04688 v 7.96875 h 11.23438 c 9.28123,0 16.46873,-3.24999 21.5625,-9.75 5.12499,-6.49999 7.6875,-15.0625 7.6875,-25.6875 0,-9.90625 -2.56251,-17.95312 -7.6875,-24.14062 -5.09377,-6.21875 -12.15627,-9.32813 -21.1875,-9.32813 z"
         transform="scale(0.26458333)"
         id="path5976"
         inkscape:connector-curvature="0" />
      <path
         style="font-size:25.39999962px;stroke-width:0.99999994;stroke:#ffffff;stroke-opacity:1;fill:#ffffff;fill-opacity:1"
         d="m 506.5293,306.29297 c -9.96873,0 -17.90624,3.46875 -23.8125,10.40625 -5.875,6.9375 -8.8125,15.35937 -8.8125,25.26562 0,7.9375 1.28123,14.5625 3.84375,19.875 2.56249,5.31251 6.15626,9.48438 10.78125,12.51563 4.65625,3 10.43749,4.5 17.34375,4.5 4.28124,0 8.40624,-0.84375 12.375,-2.53125 3.96875,-1.71875 7.42187,-4.45313 10.35937,-8.20313 l 2.25,8.90625 h 6.04688 v -24.05468 h -9.05664 c -0.3801,3.03963 -1.13583,5.62798 -2.28711,7.74218 -1.71876,3.12501 -4.18751,5.60938 -7.40625,7.45313 -3.18751,1.8125 -7.09375,2.71875 -11.71875,2.71875 -7.09375,0 -12.6875,-2.28125 -16.78125,-6.84375 -4.09376,-4.59375 -6.14063,-11.78125 -6.14063,-21.5625 0,-8.40625 2.0625,-15.15625 6.1875,-20.25 4.125,-5.125 9.57812,-7.6875 16.35938,-7.6875 5.62499,0 10.20311,1.28125 13.73437,3.84375 3.53124,2.5625 5.84376,6.10937 6.9375,10.64062 h 9 c -0.90623,-6.84375 -4.14062,-12.34375 -9.70312,-16.5 -5.56251,-4.15625 -12.0625,-6.23437 -19.5,-6.23437 z m 0.0937,33.89062 v 7.96875 h 19.36914 2.14648 8.76563 v -7.96875 z"
         transform="scale(0.26458333)"
         id="path5980"
         inkscape:connector-curvature="0" />
      <path
         d="m 147.77325,99.755089 h -2.23242 v -13.28291 h 2.1084 v 2.207617 h 0.0496 q 1.45107,-2.59209 3.7331,-2.59209 0.35967,0 0.58291,0.07441 v 2.319239 h -0.83095 q -1.50069,0 -2.45567,1.016992 -0.95498,1.016992 -0.95498,2.530078 z"
         style="font-size:25.39999962px;stroke-width:0.26458332;stroke:#ffffff;stroke-opacity:1;fill:#ffffff;fill-opacity:1"
         id="path5982"
         inkscape:connector-curvature="0" />
      <path
         style="font-size:25.39999962px;stroke-width:0.99999994;stroke:#ffffff;stroke-opacity:1;fill:#ffffff;fill-opacity:1"
         d="m 600.79492,325.37109 c -6.65625,0 -11.73438,1.375 -15.23437,4.125 -3.46878,2.75001 -5.29691,6.95313 -5.48438,12.60938 h 7.875 c 0.37501,-3.34375 1.5,-5.79688 3.375,-7.35938 1.90624,-1.5625 4.62499,-2.34375 8.15625,-2.34375 3.96873,0 6.92187,0.70313 8.85938,2.10938 1.96875,1.40625 2.95312,3.42187 2.95312,6.04687 0,0.9977 -0.11734,1.85728 -0.32812,2.60743 v 8.2207 4.75 3.5 c 0,3.28125 -1.56251,6.07812 -4.6875,8.39062 -3.12502,2.28125 -6.70313,3.42188 -10.73438,3.42188 -3.21874,0 -5.5625,-0.76563 -7.03125,-2.29688 -1.46875,-1.53125 -2.20312,-3.67187 -2.20312,-6.42187 0,-2.25 0.85937,-4.0625 2.57812,-5.4375 1.75,-1.375 4.46877,-2.28125 8.15625,-2.71875 5.00001,-0.65625 8.40627,-1.1875 10.21875,-1.59375 0.0532,-0.0117 0.0943,-0.0252 0.14649,-0.0371 v -6.4668 c -0.0512,0.009 -0.0943,0.0273 -0.14649,0.0352 l -14.90625,1.82812 c -4.78125,0.5625 -8.42187,2.20313 -10.92187,4.92188 -2.49998,2.71875 -3.75,6.28125 -3.75,10.6875 0,4.3125 1.43751,7.8125 4.3125,10.5 2.87501,2.68749 6.68751,4.03125 11.4375,4.03125 7.28126,0 13.32812,-2.71876 18.14062,-8.15625 0.0625,2.625 0.79689,4.5625 2.20313,5.8125 1.40626,1.21876 3.54689,1.82812 6.42187,1.82812 1.65627,0 3.25001,-0.31249 4.78125,-0.9375 v -6.14062 c -1.12499,0.25 -2.04686,0.375 -2.76562,0.375 -1.78124,0 -2.67188,-0.98438 -2.67188,-2.95313 v -28.92187 c 0,-4.53125 -1.79687,-8 -5.39062,-10.40625 -3.59375,-2.40625 -8.04687,-3.60938 -13.35938,-3.60938 z"
         transform="scale(0.26458333)"
         id="path5984"
         inkscape:connector-curvature="0" />
      <path
         style="font-size:25.39999962px;stroke-width:0.99999994;stroke:none;stroke-opacity:1;fill:#ffffff;fill-opacity:1"
         d="m 625.31055,326.82422 16.63476,45.56445 4.68164,-9.55664 1.5586,4.86719 -13.07813,-40.875 z m 22.875,40.875 -4.54688,9.32812 h 9.04688 l 19.125,-50.20312 h -9.23438 l -14.20312,40.875 z"
         transform="scale(0.26458333)"
         id="path5986"
         inkscape:connector-curvature="0" />
      <circle
         id="path941"
         style="fill:#7f7f7f;stroke:none"
         cx="71.057541"
         cy="107.08745"
         r="0" />
      <path
         style="opacity:1;fill:none;fill-opacity:1;stroke:#ffffff;stroke-width:1.5;stroke-linecap:butt;stroke-miterlimit:4;stroke-dasharray:none;stroke-dashoffset:0;stroke-opacity:1"
         d="m 78.796298,104.03786 4.282771,-4.282771"
         id="path1153"
         inkscape:connector-curvature="0" />
      <circle
         style="opacity:1;fill:none;fill-opacity:1;stroke:#ffffff;stroke-width:1.5;stroke-linecap:butt;stroke-miterlimit:4;stroke-dasharray:none;stroke-dashoffset:0;stroke-opacity:1"
         id="path1155"
         cx="83.608238"
         cy="99.225922"
         r="1.5119048" />
      <path
         style="opacity:1;fill:none;fill-opacity:1;stroke:#ffffff;stroke-width:1.5;stroke-linecap:butt;stroke-miterlimit:4;stroke-dasharray:none;stroke-dashoffset:0;stroke-opacity:1"
         d="m 34.119805,104.03786 4.258949,4.25895 h 16.187169"
         id="path1157"
         inkscape:connector-curvature="0" />
      <path
         style="opacity:1;fill:none;fill-opacity:1;stroke:#ffffff;stroke-width:1.5;stroke-linecap:butt;stroke-miterlimit:4;stroke-dasharray:none;stroke-dashoffset:0;stroke-opacity:1"
         d="m 113.60504,104.03786 4.19214,4.19213 h 4.92795 l 1.44526,-1.44525"
         id="path1159"
         inkscape:connector-curvature="0"
         sodipodi:nodetypes="cccc" />
      <circle
         style="font-style:normal;font-variant:normal;font-weight:normal;font-stretch:normal;font-size:3.52777767px;line-height:1.25;font-family:'Helvetica World';-inkscape-font-specification:'Helvetica World';letter-spacing:0px;word-spacing:0px;opacity:1;fill:none;fill-opacity:1;stroke:#ffffff;stroke-width:1.5;stroke-linecap:butt;stroke-miterlimit:4;stroke-dasharray:none;stroke-dashoffset:0;stroke-opacity:1"
         id="path1155-4"
         cx="125.22863"
         cy="105.7264"
         r="1.5119048" />
      <path
         style="opacity:1;fill:none;fill-opacity:1;stroke:#ffffff;stroke-width:1.5;stroke-linecap:butt;stroke-miterlimit:4;stroke-dasharray:none;stroke-dashoffset:0;stroke-opacity:1"
         d="m 186.06594,104.03786 h -54.35298 l -3.02381,-3.02381 h -6.80357 l -3.02381,3.02381 H 15.674274"
         id="path1178"
         inkscape:connector-curvature="0"
         sodipodi:nodetypes="cccccc" />
      <circle
         style="font-style:normal;font-variant:normal;font-weight:normal;font-stretch:normal;font-size:3.52777767px;line-height:1.25;font-family:'Helvetica World';-inkscape-font-specification:'Helvetica World';letter-spacing:0px;word-spacing:0px;opacity:1;fill:none;fill-opacity:1;stroke:#ffffff;stroke-width:1.5;stroke-linecap:butt;stroke-miterlimit:4;stroke-dasharray:none;stroke-dashoffset:0;stroke-opacity:1"
         id="path1155-9"
         cx="55.624256"
         cy="108.29681"
         r="1.5119048" />
      <path
         style="font-style:normal;font-variant:normal;font-weight:normal;font-stretch:normal;font-size:3.52777767px;line-height:1.25;font-family:'Helvetica World';-inkscape-font-specification:'Helvetica World';letter-spacing:0px;word-spacing:0px;opacity:1;fill:none;fill-opacity:1;stroke:#ffffff;stroke-width:1.5;stroke-linecap:butt;stroke-miterlimit:4;stroke-dasharray:none;stroke-dashoffset:0;stroke-opacity:1"
         d="m 92.25322,104.03786 2.81279,2.81279"
         id="path1153-0"
         inkscape:connector-curvature="0" />
      <circle
         style="font-style:normal;font-variant:normal;font-weight:normal;font-stretch:normal;font-size:3.52777767px;line-height:1.25;font-family:'Helvetica World';-inkscape-font-specification:'Helvetica World';letter-spacing:0px;word-spacing:0px;opacity:1;fill:none;fill-opacity:1;stroke:#ffffff;stroke-width:1.5;stroke-linecap:butt;stroke-miterlimit:4;stroke-dasharray:none;stroke-dashoffset:0;stroke-opacity:1"
         id="path1155-2"
         cx="95.695381"
         cy="-107.48004"
         r="1.5119048"
         transform="scale(1,-1)" />
      <path
         style="font-style:normal;font-variant:normal;font-weight:normal;font-stretch:normal;font-size:3.52777767px;line-height:1.25;font-family:'Helvetica World';-inkscape-font-specification:'Helvetica World';letter-spacing:0px;word-spacing:0px;opacity:1;fill:none;fill-opacity:1;stroke:#ffffff;stroke-width:1.5;stroke-linecap:butt;stroke-miterlimit:4;stroke-dasharray:none;stroke-dashoffset:0;stroke-opacity:1"
         d="m 159.97144,104.03786 4.25894,4.25895 h 16.18717"
         id="path1157-6"
         inkscape:connector-curvature="0" />
      <circle
         style="font-style:normal;font-variant:normal;font-weight:normal;font-stretch:normal;font-size:3.52777767px;line-height:1.25;font-family:'Helvetica World';-inkscape-font-specification:'Helvetica World';letter-spacing:0px;word-spacing:0px;opacity:1;fill:none;fill-opacity:1;stroke:#ffffff;stroke-width:1.5;stroke-linecap:butt;stroke-miterlimit:4;stroke-dasharray:none;stroke-dashoffset:0;stroke-opacity:1"
         id="path1155-9-4"
         cx="181.47591"
         cy="108.29681"
         r="1.5119048" />
      <path
         style="font-style:normal;font-variant:normal;font-weight:normal;font-stretch:normal;font-size:3.52777767px;line-height:1.25;font-family:'Helvetica World';-inkscape-font-specification:'Helvetica World';letter-spacing:0px;word-spacing:0px;opacity:1;fill:none;fill-opacity:1;stroke:#ffffff;stroke-width:1.5;stroke-linecap:butt;stroke-miterlimit:4;stroke-dasharray:none;stroke-dashoffset:0;stroke-opacity:1"
         d="m 139.10893,104.03786 2.81279,2.81279"
         id="path1153-0-4"
         inkscape:connector-curvature="0" />
      <circle
         style="font-style:normal;font-variant:normal;font-weight:normal;font-stretch:normal;font-size:3.52777767px;line-height:1.25;font-family:'Helvetica World';-inkscape-font-specification:'Helvetica World';letter-spacing:0px;word-spacing:0px;opacity:1;fill:none;fill-opacity:1;stroke:#ffffff;stroke-width:1.5;stroke-linecap:butt;stroke-miterlimit:4;stroke-dasharray:none;stroke-dashoffset:0;stroke-opacity:1"
         id="path1155-2-4"
         cx="142.55109"
         cy="-107.48004"
         r="1.5119048"
         transform="scale(1,-1)" />
      <path
         style="font-style:normal;font-variant:normal;font-weight:normal;font-stretch:normal;font-size:3.52777767px;line-height:1.25;font-family:'Helvetica World';-inkscape-font-specification:'Helvetica World';letter-spacing:0px;word-spacing:0px;opacity:1;fill:none;fill-opacity:1;stroke:#ffffff;stroke-width:1.5;stroke-linecap:butt;stroke-miterlimit:4;stroke-dasharray:none;stroke-dashoffset:0;stroke-opacity:1"
         d="m 83.316408,104.03786 2.81279,2.81279"
         id="path1153-0-6"
         inkscape:connector-curvature="0" />
      <circle
         style="font-style:normal;font-variant:normal;font-weight:normal;font-stretch:normal;font-size:3.52777767px;line-height:1.25;font-family:'Helvetica World';-inkscape-font-specification:'Helvetica World';letter-spacing:0px;word-spacing:0px;opacity:1;fill:none;fill-opacity:1;stroke:#ffffff;stroke-width:1.5;stroke-linecap:butt;stroke-miterlimit:4;stroke-dasharray:none;stroke-dashoffset:0;stroke-opacity:1"
         id="path1155-2-5"
         cx="86.758568"
         cy="-107.48004"
         r="1.5119048"
         transform="scale(1,-1)" />
      <circle
         style="font-style:normal;font-variant:normal;font-weight:normal;font-stretch:normal;font-size:3.52777767px;line-height:1.25;font-family:'Helvetica World';-inkscape-font-specification:'Helvetica World';letter-spacing:0px;word-spacing:0px;opacity:1;fill:none;fill-opacity:1;stroke:#ffffff;stroke-width:1.5;stroke-linecap:butt;stroke-miterlimit:4;stroke-dasharray:none;stroke-dashoffset:0;stroke-opacity:1"
         id="path1155-9-4-8"
         cx="187.65344"
         cy="104.03786"
         r="1.5119048" />
    </g>
  </g>
</svg>
